Coordinates
version=1
nRows=12
nColumns=24
inDegrees=yes

Units are S.I. units (second, meters, Newtons, ...)
If the header above contains a line with 'inDegrees', this indicates whether rotational values are in degrees (yes) or radians (no).

endheader
time	pelvis_tilt	pelvis_list	pelvis_rotation	pelvis_tx	pelvis_ty	pelvis_tz	hip_flexion_r	hip_adduction_r	hip_rotation_r	knee_angle_r	ankle_angle_r	subtalar_angle_r	mtp_angle_r	hip_flexion_l	hip_adduction_l	hip_rotation_l	knee_angle_l	ankle_angle_l	subtalar_angle_l	mtp_angle_l	lumbar_extension	lumbar_bending	lumbar_rotation
      3.62500000	      9.66883947	      0.83168036	   -180.74671813	      0.29137999	      0.59941277	     -1.22272459	     65.34766856	    -28.61666862	    -14.53667041	    -97.14163496	     37.32108030	     13.09465878	      0.00000000	     66.79424858	    -32.54699561	     -8.51845878	    -95.33633082	     36.14240506	     20.40597540	      0.00000000	    -10.03406727	      1.54378185	      1.39657725
      3.63000000	      9.69799999	      0.85068534	   -180.77075423	      0.29123926	      0.60121698	     -1.22276665	     65.12664051	    -28.53599851	    -14.68110959	    -96.78158085	     37.20473567	     13.06971442	      0.00000000	     66.57165255	    -32.52644478	     -8.64216948	    -94.99167951	     35.98153328	     20.37768554	      0.00000000	     -9.94266230	      1.56336161	      1.42893452
      3.63500000	      9.70295595	      0.84820797	   -180.77376072	      0.29113709	      0.60307183	     -1.22288784	     64.87961530	    -28.48579839	    -14.82844064	    -96.41531757	     37.04422380	     13.05714555	      0.00000000	     66.31148955	    -32.47315218	     -8.77669897	    -94.61888287	     35.79813191	     20.32844229	      0.00000000	     -9.87867534	      1.53946896	      1.42855821
      3.64000000	      9.71107320	      0.84042991	   -180.77702577	      0.29100609	      0.60503362	     -1.22301664	     64.61330903	    -28.42789128	    -14.97501665	    -96.01562269	     36.89512960	     13.05306588	      0.00000000	     66.02501817	    -32.40663803	     -8.93339529	    -94.21437113	     35.62339497	     20.28114296	      0.00000000	     -9.80134437	      1.53503820	      1.38786199
      3.64500000	      9.73435906	      0.83543746	   -180.78926259	      0.29090655	      0.60707886	     -1.22314586	     64.36076031	    -28.34801131	    -15.11001581	    -95.59396706	     36.73011431	     13.05742003	      0.00000000	     65.74989376	    -32.34903124	     -9.10531080	    -93.79340246	     35.44069789	     20.22879776	      0.00000000	     -9.72037203	      1.52949731	      1.35753447
      3.65000000	      9.69637702	      0.82217695	   -180.78547551	      0.29076473	      0.60922424	     -1.22321801	     64.05029972	    -28.29231401	    -15.24200349	    -95.18543063	     36.58732140	     13.02396567	      0.00000000	     65.39889336	    -32.25894704	     -9.27239644	    -93.36679367	     35.30833173	     20.15400548	      0.00000000	     -9.70238236	      1.52142313	      1.30626185
      3.65500000	      9.74212929	      0.83498837	   -180.79330010	      0.29063511	      0.61146963	     -1.22332890	     63.79385321	    -28.20323772	    -15.41098038	    -94.73366155	     36.38575710	     13.04645207	      0.00000000	     65.13087667	    -32.19912756	     -9.43267867	    -92.90342793	     35.11436578	     20.10330769	      0.00000000	     -9.60048591	      1.51518389	      1.32592331
      3.66000000	      9.76106469	      0.82335887	   -180.81039223	      0.29051479	      0.61380575	     -1.22350080	     63.51842759	    -28.11516046	    -15.55706635	    -94.27286883	     36.19037369	     13.03160383	      0.00000000	     64.81369648	    -32.13199131	     -9.61580423	    -92.44094203	     34.89901987	     20.05005634	      0.00000000	     -9.50954622	      1.53096425	      1.21106792
      3.66500000	      9.76045031	      0.81689397	   -180.80144792	      0.29041072	      0.61620339	     -1.22357656	     63.18857232	    -28.03831412	    -15.71111614	    -93.77514666	     36.01950560	     13.00153585	      0.00000000	     64.47288949	    -32.02882773	     -9.79344375	    -91.94698756	     34.70817399	     19.93857378	      0.00000000	     -9.46784346	      1.49655918	      1.20928460
      3.67000000	      9.77922066	      0.81489738	   -180.80455864	      0.29031663	      0.61861538	     -1.22376030	     62.87561182	    -27.93692306	    -15.86566484	    -93.26341928	     35.79749658	     13.02163460	      0.00000000	     64.14712018	    -31.94199470	     -9.96722479	    -91.42930513	     34.46951531	     19.89641554	      0.00000000	     -9.40529009	      1.44544900	      1.26041140
      3.67500000	      9.79635894	      0.80232953	   -180.78699769	      0.29019059	      0.62110634	     -1.22374726	     62.55703935	    -27.87383759	    -16.02421036	    -92.74502663	     35.58896505	     13.00342702	      0.00000000	     63.80691966	    -31.80693295	    -10.13099957	    -90.94675186	     34.21568476	     19.84487173	      0.00000000	     -9.33650296	      1.43980197	      1.19310478
      3.68000000	      9.81685821	      0.80785788	   -180.82396293	      0.29007054	      0.62367267	     -1.22380369	     62.24653282	    -27.74766996	    -16.17909140	    -92.21530264	     35.36089615	     12.98920403	      0.00000000	     63.46523367	    -31.74005624	    -10.28560839	    -90.42679343	     33.97863890	     19.79628892	      0.00000000	     -9.25585075	      1.46758935	      1.18197587
